<svg xmlns="http://www.w3.org/2000/svg" viewBox="0 0 360.54 65.2"><defs><style>.cls-1{fill:#fff;}.cls-2{fill:#bd2036;}.cls-3{fill:#00275b;}</style></defs><g id="alt_navy" data-name="alt navy"><polygon class="cls-1" points="13.72 0 13.71 21.16 15.9 21.15 7.28 44.05 0 44.04 0 65.2 70.63 65.2 70.63 44.01 63.3 44 54.76 21.17 56.9 21.18 56.9 0.01 13.72 0 13.72 0"/><path class="cls-2" d="M35.3,7.91,50.43,47.13s1.94,4.78,5.09,4.78h-11s.56.08,1.11-.84a1.86,1.86,0,0,0,0-1.31L42.25,41H28.38L25,49.76A1.82,1.82,0,0,0,25,51.07c.55.92,1.1.84,1.1.84h-11c3.15,0,5.09-4.78,5.09-4.78L35.3,7.91Z"/><polygon class="cls-3" points="35.32 7.86 48.96 7.86 48.96 13.31 43.29 13.31 58.19 51.72 62.6 51.72 62.6 57.37 44.13 57.37 44.13 51.87 38.95 51.87 38.95 62.65 68.09 62.65 68.09 46.58 61.55 46.59 51.06 18.62 54.35 18.62 54.35 2.55 35.32 2.55 16.28 2.55 16.28 18.62 19.58 18.62 9.08 46.55 2.54 46.58 2.54 62.65 31.69 62.65 31.69 51.87 26.5 51.87 26.5 57.37 8.04 57.37 8.04 51.72 12.44 51.72 27.34 13.31 21.68 13.31 21.68 7.86 35.32 7.86 35.32 7.86"/><path class="cls-3" d="M73.86,59.69h.67a.84.84,0,0,0,.5-.12.45.45,0,0,0,.16-.39.38.38,0,0,0-.16-.34.93.93,0,0,0-.5-.11h-.67v1Zm-.49-1.35h1.25a1.24,1.24,0,0,1,.79.22.75.75,0,0,1,.29.62.86.86,0,0,1-.29.68,1,1,0,0,1-.55.23l.9,1.36h-.57l-.81-1.35h-.52v1.34h-.49V58.34Zm2.76,0a2.11,2.11,0,0,0-1.56-.65A2.14,2.14,0,0,0,73,58.3a2.22,2.22,0,0,0-.63,1.59A2.19,2.19,0,0,0,73,61.48a2.21,2.21,0,0,0,3.77-1.59,2.19,2.19,0,0,0-.64-1.59m.39-.32a2.69,2.69,0,0,1,0,3.83,2.84,2.84,0,0,1-3.91,0,2.72,2.72,0,0,1,0-3.83,2.72,2.72,0,0,1,2-.78,2.68,2.68,0,0,1,2,.78"/><polygon class="cls-1" points="35.29 36.84 40.62 36.84 35.4 23.08 29.98 36.84 35.29 36.84 35.29 36.84"/><polygon class="cls-3" points="86.4 65.2 87.66 65.2 87.66 0 86.4 0 86.4 65.2 86.4 65.2"/><path class="cls-3" d="M118.39,43.39v-2.2a7.67,7.67,0,0,1-6.27,2.71,8.5,8.5,0,0,1-4-.93,5.86,5.86,0,0,1-2.59-2.55,6,6,0,0,1-.46-1.15,8.26,8.26,0,0,1-.22-1.35c0-.53-.06-1.24-.06-2.12V26.59a16.16,16.16,0,0,0-.11-2.12,2.91,2.91,0,0,0-.42-1.19,2.49,2.49,0,0,0-.9-.73h6a2.62,2.62,0,0,0-.88.73,3,3,0,0,0-.41,1.18,14.55,14.55,0,0,0-.12,2.13V35.8a9.92,9.92,0,0,0,.23,2.43,4.18,4.18,0,0,0,.87,1.61,4.54,4.54,0,0,0,1.77,1.3,5.73,5.73,0,0,0,2.26.45,6,6,0,0,0,2.63-.59,5,5,0,0,0,1.93-1.59,3.42,3.42,0,0,0,.52-1,6.28,6.28,0,0,0,.14-1.47V26.59a14.55,14.55,0,0,0-.12-2.13,3,3,0,0,0-.41-1.18,2.62,2.62,0,0,0-.88-.73h6a2.31,2.31,0,0,0-.88.73,2.63,2.63,0,0,0-.43,1.17,14.43,14.43,0,0,0-.12,2.14V39.35a14.52,14.52,0,0,0,.12,2.14,2.73,2.73,0,0,0,.43,1.17,2.51,2.51,0,0,0,.88.73Z"/><path class="cls-3" d="M129,28.18v2.64a8.15,8.15,0,0,1,2.23-1.91,5.19,5.19,0,0,1,2.46-.55,6.84,6.84,0,0,1,1.94.28,5.45,5.45,0,0,1,1.72.8,4.7,4.7,0,0,1,1.21,1.18,4.45,4.45,0,0,1,.58,1.57,16.36,16.36,0,0,1,.16,2.7v5.38a6.44,6.44,0,0,0,.19,2,3.2,3.2,0,0,0,1,1.13h-5.28a4.55,4.55,0,0,0,.85-.78,1.85,1.85,0,0,0,.3-.82,11,11,0,0,0,.08-1.52v-5a10.37,10.37,0,0,0-.16-2,2.8,2.8,0,0,0-.53-1.18,3.26,3.26,0,0,0-1.33-1,4.64,4.64,0,0,0-1.85-.38,4.11,4.11,0,0,0-1.74.37,2.67,2.67,0,0,0-1.69,2.81v6.39a11.08,11.08,0,0,0,.08,1.55,1.65,1.65,0,0,0,.29.79,5.48,5.48,0,0,0,.83.78h-5.24a4.13,4.13,0,0,0,.84-.78,1.58,1.58,0,0,0,.29-.75,11.49,11.49,0,0,0,.07-1.59V31.91a11.37,11.37,0,0,0-.07-1.6,1.66,1.66,0,0,0-.29-.75,4.45,4.45,0,0,0-.84-.77h2a2.41,2.41,0,0,0,1.86-.61Z"/><path class="cls-3" d="M145,22.93a1.79,1.79,0,0,1,1.36.58,1.9,1.9,0,0,1,.56,1.36,2,2,0,0,1-.57,1.42,1.89,1.89,0,0,1-1.41.58,1.86,1.86,0,0,1-1.38-.58,2,2,0,0,1-.57-1.42,1.85,1.85,0,0,1,.59-1.37,2,2,0,0,1,1.42-.57Zm1.43,5.25V40.27a11.08,11.08,0,0,0,.08,1.55,1.77,1.77,0,0,0,.3.79,5,5,0,0,0,.83.78h-5.25a4.13,4.13,0,0,0,.84-.78,1.58,1.58,0,0,0,.3-.75,14,14,0,0,0,.06-1.59V31.91a13.9,13.9,0,0,0-.06-1.6,1.67,1.67,0,0,0-.3-.75,4.45,4.45,0,0,0-.84-.77h2.2a2.37,2.37,0,0,0,1.84-.61Z"/><path class="cls-3" d="M157.78,40.69l3.78-8.46a5.09,5.09,0,0,0,.54-1.86,1.58,1.58,0,0,0-.2-.84,3.48,3.48,0,0,0-.82-.74h4.49l-7.19,15.77a20.14,20.14,0,0,1-1.95-1.26,4.07,4.07,0,0,1-1-1,10.57,10.57,0,0,1-.81-1.65l-3.72-8.56a16.72,16.72,0,0,0-.82-1.68,2.87,2.87,0,0,0-.63-.74,11.07,11.07,0,0,0-1.26-.84h2.11a5.52,5.52,0,0,0,1.35-.12,2.83,2.83,0,0,0,.95-.46,4.9,4.9,0,0,0,.4,1.47l4.74,11Z"/><path class="cls-3" d="M169.36,33.8h8.19q-.68-3.55-4-3.55a4.1,4.1,0,0,0-2.71.92,4.48,4.48,0,0,0-1.45,2.63Zm11.51,2H169.23a6.87,6.87,0,0,0,.86,3.17,5.09,5.09,0,0,0,2.2,2,7.3,7.3,0,0,0,3.28.71,10.69,10.69,0,0,0,1.91-.17A7.33,7.33,0,0,0,179.2,41a10.56,10.56,0,0,0,1.67-.94l-1.71,3a11.65,11.65,0,0,1-1.43.45,10.4,10.4,0,0,1-1.43.24c-.51,0-1,.07-1.52.07a10.59,10.59,0,0,1-4.64-1A7.54,7.54,0,0,1,167,40.08a7.25,7.25,0,0,1-1.14-4,7.72,7.72,0,0,1,.32-2.18,8.45,8.45,0,0,1,.9-2,7.69,7.69,0,0,1,1.36-1.66,7,7,0,0,1,2.35-1.37,8.91,8.91,0,0,1,2.93-.46,7.91,7.91,0,0,1,2.87.51,6.71,6.71,0,0,1,2.28,1.44,6.36,6.36,0,0,1,1.51,2.19,6.93,6.93,0,0,1,.54,2.76v.51Z"/><path class="cls-3" d="M188,43.39h-5.25a4.55,4.55,0,0,0,.85-.78,1.58,1.58,0,0,0,.29-.75,13.39,13.39,0,0,0,.07-1.59V31.91a13.22,13.22,0,0,0-.07-1.6,1.66,1.66,0,0,0-.29-.75,5,5,0,0,0-.85-.77H185a2.4,2.4,0,0,0,1.85-.61v2.61A4.79,4.79,0,0,1,188.43,29a4,4,0,0,1,2.2-.62,6.39,6.39,0,0,1,1.1.12v2.91a2.06,2.06,0,0,0-1.49-.51,3.84,3.84,0,0,0-1.59.34,2.89,2.89,0,0,0-1.14,1,5,5,0,0,0-.67,2.88v5.22a11.48,11.48,0,0,0,.07,1.55,1.77,1.77,0,0,0,.3.79,5,5,0,0,0,.83.78Z"/><path class="cls-3" d="M203.19,28.79v2.69a7.58,7.58,0,0,0-3.89-1.23,4,4,0,0,0-2.12.49,1.48,1.48,0,0,0-.8,1.28,1.21,1.21,0,0,0,.32.82,2.93,2.93,0,0,0,1,.69,18.13,18.13,0,0,0,2,.73,25.3,25.3,0,0,1,2.59,1,5.36,5.36,0,0,1,1.36.9,3.7,3.7,0,0,1,1.24,2.77,4.21,4.21,0,0,1-.86,2.6,5.34,5.34,0,0,1-2.43,1.72,10.4,10.4,0,0,1-3.7.6,11.71,11.71,0,0,1-2.13-.16,12.37,12.37,0,0,1-2.13-.63L192.6,39.9a19.5,19.5,0,0,0,2.15,1.18,9.12,9.12,0,0,0,3.77.79,4.39,4.39,0,0,0,2.43-.64,1.86,1.86,0,0,0,1-1.59,1.67,1.67,0,0,0-.72-1.44,17,17,0,0,0-3-1.28,16.81,16.81,0,0,1-2.85-1.26,4,4,0,0,1-1.45-1.32,3.3,3.3,0,0,1-.43-1.72,3.59,3.59,0,0,1,.75-2.28,4.51,4.51,0,0,1,2.14-1.47,9.73,9.73,0,0,1,3.32-.51,12.38,12.38,0,0,1,3.53.43Z"/><path class="cls-3" d="M209,22.93a1.79,1.79,0,0,1,1.36.58,1.9,1.9,0,0,1,.56,1.36,2,2,0,0,1-.57,1.42,1.89,1.89,0,0,1-1.41.58,1.86,1.86,0,0,1-1.38-.58,2,2,0,0,1-.57-1.42,1.85,1.85,0,0,1,.59-1.37,2,2,0,0,1,1.42-.57Zm1.44,5.25V40.27a11.48,11.48,0,0,0,.07,1.55,1.77,1.77,0,0,0,.3.79,5,5,0,0,0,.83.78H206.4a4.13,4.13,0,0,0,.84-.78,1.58,1.58,0,0,0,.3-.75,14,14,0,0,0,.06-1.59V31.91a13.9,13.9,0,0,0-.06-1.6,1.67,1.67,0,0,0-.3-.75,4.45,4.45,0,0,0-.84-.77h2.2a2.41,2.41,0,0,0,1.85-.61Z"/><path class="cls-3" d="M217.79,30.88V37.6a11.06,11.06,0,0,0,.12,1.94,2.38,2.38,0,0,0,.45,1,3,3,0,0,0,2.44,1.09,3.61,3.61,0,0,0,1.31-.27l-1.64,2.24a3.33,3.33,0,0,1-1.14.19,4.51,4.51,0,0,1-4-2.4,4,4,0,0,1-.32-1.26,21.22,21.22,0,0,1-.09-2.28v-7h-2.17V29.74a4.38,4.38,0,0,0,2.61-1.38,5.51,5.51,0,0,0,1.17-3.9v-.39h1.23v4.72h2.46a5.58,5.58,0,0,0,1.86-.2v2.86a1.89,1.89,0,0,0-.76-.44,4.13,4.13,0,0,0-1.21-.13Z"/><path class="cls-3" d="M232.44,40.56l3.33-8.42a5.34,5.34,0,0,0,.48-1.92,1.73,1.73,0,0,0-.92-1.43h4.44L233,44.88a11.6,11.6,0,0,1-1.1,2.19,7.09,7.09,0,0,1-1.33,1.42,5.74,5.74,0,0,1-1.94,1,7.76,7.76,0,0,1-2.35.34,8.43,8.43,0,0,1-1.69-.16,20.06,20.06,0,0,1-2.15-.64L225.31,47a3.6,3.6,0,0,0,1.79.55,2.91,2.91,0,0,0,2.1-.9,7.57,7.57,0,0,0,1.62-2.71l.3-.83c-.37-.37-.62-.64-.76-.8a2.62,2.62,0,0,1-.38-.54c-.11-.19-.27-.53-.48-1l-4.19-9.15a8.69,8.69,0,0,0-1.11-1.92,3.3,3.3,0,0,0-1.26-.89l3.06-.14a2.57,2.57,0,0,1,.95.11c.18,0,.4.33.66.92l4.83,10.88Z"/><path class="cls-3" d="M253.3,26.59V40.81a29,29,0,0,0,4.27.32,9.17,9.17,0,0,0,2.95-.41,11.16,11.16,0,0,0,2.8-1.53l-1.68,4.2H248.7a2.59,2.59,0,0,0,.9-.74,2.72,2.72,0,0,0,.41-1.19,14.41,14.41,0,0,0,.11-2.11V26.59a14.57,14.57,0,0,0-.11-2.12,2.77,2.77,0,0,0-.41-1.19,2.57,2.57,0,0,0-.9-.73h6a2.21,2.21,0,0,0-.89.73,2.81,2.81,0,0,0-.41,1.18,16.44,16.44,0,0,0-.11,2.13Z"/><path class="cls-3" d="M266.91,22.93a1.79,1.79,0,0,1,1.36.58,1.9,1.9,0,0,1,.56,1.36,2,2,0,0,1-.56,1.42,1.93,1.93,0,0,1-1.42.58,1.87,1.87,0,0,1-1.38-.58,2,2,0,0,1-.57-1.42,1.85,1.85,0,0,1,.59-1.37,2,2,0,0,1,1.42-.57Zm1.44,5.25V40.27a11.48,11.48,0,0,0,.07,1.55,1.77,1.77,0,0,0,.3.79,5,5,0,0,0,.83.78H264.3a4.55,4.55,0,0,0,.85-.78,1.69,1.69,0,0,0,.29-.75,14,14,0,0,0,.06-1.59V31.91a13.9,13.9,0,0,0-.06-1.6,1.79,1.79,0,0,0-.29-.75,5,5,0,0,0-.85-.77h2.2a2.4,2.4,0,0,0,1.85-.61Z"/><path class="cls-3" d="M276,31.42l1.75-2.66a7.82,7.82,0,0,1,1.08-.31,5.77,5.77,0,0,1,1.09-.09,6.31,6.31,0,0,1,2.64.55,6.57,6.57,0,0,1,2.15,1.55,6.94,6.94,0,0,1,1.42,2.32,8.14,8.14,0,0,1,.5,2.88,8,8,0,0,1-1.13,4.26,7.46,7.46,0,0,1-3.18,2.87,10.53,10.53,0,0,1-4.72,1,26.89,26.89,0,0,1-6.09-.57,1.85,1.85,0,0,0,.77-.82,3.66,3.66,0,0,0,.2-1.4V25.67a13.22,13.22,0,0,0-.07-1.6,1.66,1.66,0,0,0-.29-.75,4.8,4.8,0,0,0-.84-.77h2.18a2.57,2.57,0,0,0,1.86-.61V41.19a11.21,11.21,0,0,0,2.69.37A5.37,5.37,0,0,0,282,40.14a5.13,5.13,0,0,0,1.45-3.85,6.69,6.69,0,0,0-.6-2.91,4.59,4.59,0,0,0-1.65-2,4.3,4.3,0,0,0-2.42-.71,5.19,5.19,0,0,0-1.31.15,7.67,7.67,0,0,0-1.41.57Z"/><path class="cls-3" d="M293.75,43.39h-5.24a4.13,4.13,0,0,0,.84-.78,1.58,1.58,0,0,0,.29-.75,11.49,11.49,0,0,0,.07-1.59V31.91a11.37,11.37,0,0,0-.07-1.6,1.66,1.66,0,0,0-.29-.75,4.45,4.45,0,0,0-.84-.77h2.19a2.4,2.4,0,0,0,1.85-.61v2.61a4.73,4.73,0,0,1,1.6-1.81,4,4,0,0,1,2.19-.62,6.29,6.29,0,0,1,1.1.12v2.91a2.06,2.06,0,0,0-1.49-.51,3.84,3.84,0,0,0-1.59.34,2.89,2.89,0,0,0-1.14,1,5,5,0,0,0-.67,2.88v5.22a11.48,11.48,0,0,0,.07,1.55,1.77,1.77,0,0,0,.3.79,5,5,0,0,0,.83.78Z"/><path class="cls-3" d="M307.32,39.55V35.47a10,10,0,0,1-.94.4l-.9.27c-.33.09-1.06.26-2.2.53C301.75,37,301,37.85,301,39.1a2.27,2.27,0,0,0,.89,1.89,3.92,3.92,0,0,0,2.47.69,8.42,8.42,0,0,0,2.37-.41l-1.86,2.35a7.55,7.55,0,0,1-1.74.19,5.4,5.4,0,0,1-3.75-1.23,4.52,4.52,0,0,1-1.62-3.51,3.87,3.87,0,0,1,.49-1.87,3.08,3.08,0,0,1,1.29-1.31,15.24,15.24,0,0,1,4.16-1.23,9.9,9.9,0,0,0,2.86-.86,1.45,1.45,0,0,0,.71-1.29,1.67,1.67,0,0,0-.38-1.07,2.46,2.46,0,0,0-1.08-.71,4.74,4.74,0,0,0-1.57-.25,6.76,6.76,0,0,0-1.87.26,17.1,17.1,0,0,0-2.45,1L302,28.57a11.32,11.32,0,0,1,2.2-.21q4,0,5.35,2.12a4,4,0,0,1,.52,1.36,18.25,18.25,0,0,1,.11,2.42v4.09a7.86,7.86,0,0,0,.13,1.81A1.7,1.7,0,0,0,311,41a3.24,3.24,0,0,0,1.89.51l-1.38,2.06a12.75,12.75,0,0,1-1.77-.22,3.9,3.9,0,0,1-1.2-.49,2.27,2.27,0,0,1-1-1.12,7.12,7.12,0,0,1-.24-2.21Z"/><path class="cls-3" d="M319.19,43.39H314a4.13,4.13,0,0,0,.84-.78,1.58,1.58,0,0,0,.29-.75,11.49,11.49,0,0,0,.07-1.59V31.91a11.37,11.37,0,0,0-.07-1.6,1.66,1.66,0,0,0-.29-.75,4.45,4.45,0,0,0-.84-.77h2.19a2.4,2.4,0,0,0,1.85-.61v2.61a4.73,4.73,0,0,1,1.6-1.81,4,4,0,0,1,2.19-.62,6.29,6.29,0,0,1,1.1.12v2.91a2.06,2.06,0,0,0-1.49-.51,3.8,3.8,0,0,0-1.58.34,2.85,2.85,0,0,0-1.15,1,5,5,0,0,0-.67,2.88v5.22a13.46,13.46,0,0,0,.07,1.55,1.77,1.77,0,0,0,.3.79,5.48,5.48,0,0,0,.83.78Z"/><path class="cls-3" d="M327,22.93a1.79,1.79,0,0,1,1.36.58,1.9,1.9,0,0,1,.56,1.36,2,2,0,0,1-.57,1.42,2,2,0,0,1-2.8,0,2,2,0,0,1-.56-1.42,1.85,1.85,0,0,1,.59-1.37,2,2,0,0,1,1.42-.57Zm1.43,5.25V40.27a11.08,11.08,0,0,0,.08,1.55,1.77,1.77,0,0,0,.3.79,5.3,5.3,0,0,0,.82.78h-5.24a4.13,4.13,0,0,0,.84-.78,1.69,1.69,0,0,0,.3-.75,14,14,0,0,0,.06-1.59V31.91a13.9,13.9,0,0,0-.06-1.6,1.8,1.8,0,0,0-.3-.75,4.45,4.45,0,0,0-.84-.77h2.2a2.37,2.37,0,0,0,1.84-.61Z"/><path class="cls-3" d="M334.89,33.8h8.19q-.68-3.55-4-3.55a4.12,4.12,0,0,0-2.71.92,4.54,4.54,0,0,0-1.45,2.63Zm11.52,2H334.76a6.87,6.87,0,0,0,.87,3.17,5.06,5.06,0,0,0,2.19,2,7.31,7.31,0,0,0,3.29.71,10.86,10.86,0,0,0,1.91-.17,7.48,7.48,0,0,0,1.72-.53,11.52,11.52,0,0,0,1.67-.94l-1.72,3a12.09,12.09,0,0,1-1.42.45,10.81,10.81,0,0,1-1.44.24c-.5,0-1,.07-1.52.07a10.55,10.55,0,0,1-4.63-1,7.51,7.51,0,0,1-3.2-2.75,7.33,7.33,0,0,1-1.13-4,7.71,7.71,0,0,1,.31-2.18,8.11,8.11,0,0,1,.91-2,7.14,7.14,0,0,1,1.36-1.66,6.8,6.8,0,0,1,2.35-1.37,8.85,8.85,0,0,1,2.92-.46,7.87,7.87,0,0,1,2.87.51,6.85,6.85,0,0,1,2.29,1.44,6.47,6.47,0,0,1,1.5,2.19,6.77,6.77,0,0,1,.55,2.76v.51Z"/><path class="cls-3" d="M358.79,28.79v2.69a7.6,7.6,0,0,0-3.89-1.23,4,4,0,0,0-2.12.49A1.48,1.48,0,0,0,352,32a1.21,1.21,0,0,0,.32.82,2.93,2.93,0,0,0,1,.69,18.13,18.13,0,0,0,2,.73,24,24,0,0,1,2.58,1,5.24,5.24,0,0,1,1.37.9,3.7,3.7,0,0,1,1.24,2.77,4.21,4.21,0,0,1-.86,2.6,5.34,5.34,0,0,1-2.43,1.72,10.4,10.4,0,0,1-3.7.6,11.71,11.71,0,0,1-2.13-.16,12.37,12.37,0,0,1-2.13-.63L348.2,39.9a18.69,18.69,0,0,0,2.16,1.18,8.84,8.84,0,0,0,1.85.6,9,9,0,0,0,1.91.19,4.39,4.39,0,0,0,2.43-.64,1.88,1.88,0,0,0,1-1.59,1.69,1.69,0,0,0-.71-1.44,17.59,17.59,0,0,0-3-1.28,16.81,16.81,0,0,1-2.85-1.26,4,4,0,0,1-1.45-1.32,3.21,3.21,0,0,1-.43-1.72,3.59,3.59,0,0,1,.75-2.28,4.51,4.51,0,0,1,2.14-1.47,9.73,9.73,0,0,1,3.32-.51,12.38,12.38,0,0,1,3.53.43Z"/></g></svg>