<?xml version="1.0" encoding="utf-8"?>
<!-- Generator: Adobe Illustrator 17.1.0, SVG Export Plug-In . SVG Version: 6.00 Build 0)  -->
<!DOCTYPE svg PUBLIC "-//W3C//DTD SVG 1.1//EN" "http://www.w3.org/Graphics/SVG/1.1/DTD/svg11.dtd">
<svg version="1.1" id="Layer_1" xmlns="http://www.w3.org/2000/svg" xmlns:xlink="http://www.w3.org/1999/xlink" x="0px" y="0px"
	 viewBox="0 0 127.885 128.88" enable-background="new 0 0 127.885 128.88" xml:space="preserve">
<g>
	<polygon fill="#FFFFFF" points="96.389,0.01 96.389,32.67 93.083,32.654 106.266,67.875 117.571,67.89 117.571,100.576 
		8.621,100.576 8.621,67.934 19.845,67.947 33.146,32.628 29.766,32.636 29.779,0 	"/>
	<polyline fill="#0C234B" points="63.096,12.119 84.137,12.119 84.137,20.535 75.397,20.535 98.379,79.771 105.176,79.771 
		105.176,88.487 76.692,88.487 76.692,80.008 68.695,80.008 68.695,96.634 113.655,96.634 113.655,71.845 103.559,71.861 
		87.375,28.715 92.458,28.715 92.458,3.94 63.096,3.94 63.096,3.94 33.734,3.94 33.734,28.715 38.818,28.715 22.633,71.807 
		12.537,71.845 12.537,96.634 57.5,96.634 57.5,80.008 49.5,80.008 49.5,88.487 21.016,88.487 21.016,79.771 27.812,79.771 
		50.795,20.535 42.055,20.535 42.055,12.119 63.096,12.119 	"/>
	<path fill="#0C234B" d="M122.555,92.076h1.023c0.355,0,0.615-0.062,0.779-0.189c0.166-0.127,0.246-0.326,0.246-0.598
		c0-0.238-0.08-0.412-0.246-0.525c-0.164-0.111-0.424-0.168-0.779-0.168h-1.023V92.076L122.555,92.076z M121.801,89.984h0.381h1.545
		c0.52,0,0.926,0.115,1.221,0.344c0.295,0.23,0.443,0.551,0.443,0.959c0,0.441-0.148,0.793-0.445,1.045
		c-0.221,0.188-0.504,0.307-0.85,0.354l1.381,2.104h-0.436h-0.439l-1.244-2.076l-0.803,0.004v2.072h-0.377h-0.377V89.984
		L121.801,89.984z M126.055,89.936c-0.656-0.668-1.461-1.002-2.414-1.002c-0.953,0-1.754,0.334-2.41,1.002
		c-0.658,0.668-0.984,1.486-0.984,2.453c0,0.967,0.326,1.785,0.984,2.451c0.656,0.666,1.457,0.998,2.41,0.998
		c0.949,0,1.754-0.332,2.412-0.998c0.656-0.666,0.984-1.484,0.984-2.451C127.038,91.422,126.712,90.604,126.055,89.936
		L126.055,89.936z M126.653,89.436c0.822,0.803,1.232,1.787,1.232,2.953c0,1.162-0.41,2.145-1.231,2.949
		c-0.82,0.803-1.824,1.203-3.014,1.203c-1.189,0-2.191-0.4-3.014-1.203c-0.816-0.805-1.227-1.787-1.227-2.949
		c0-1.166,0.41-2.15,1.23-2.953c0.822-0.805,1.824-1.205,3.01-1.205C124.827,88.23,125.831,88.631,126.653,89.436L126.653,89.436z"
		/>
	<path fill="#AB0520" d="M63.075,12.195l23.335,60.51c0,0,2.99,7.363,7.846,7.363h-16.99c0,0,0.854,0.125,1.703-1.293
		c0.488-0.809,0.076-2.023,0.076-2.023l-5.254-13.508H63.075H52.403l-5.262,13.508c0,0-0.401,1.215,0.084,2.023
		c0.848,1.418,1.698,1.293,1.698,1.293H31.935c4.854,0,7.846-7.363,7.846-7.363L63.075,12.195 M63.057,56.83h8.221l-8.202-21.227
		L54.874,56.83H63.057L63.057,56.83z"/>
	<g>
		<path fill="#0C234B" d="M11.391,102.608l1.76,4.298l6.693,16.771c0.74,1.862,1.322,3.691,3.154,4.634v0.1h-6.602v-0.1
			c1.582-0.717,1.32-1.072,0.457-3.354l-1.742-4.608H6.955l-1.674,4.608c-0.676,1.827-0.902,2.769,0.643,3.354v0.1H0v-0.1
			c1.865-0.943,2.418-2.771,3.123-4.634l8.268-20.938V102.608z M11.014,109.688l-3.223,8.244h6.385L11.014,109.688z"/>
		<path fill="#0C234B" d="M27.537,124.991c0,0.977,0.084,1.699,0.254,2.166c0.168,0.465,0.459,0.887,0.869,1.254h-5.24
			c0.402-0.367,0.689-0.789,0.861-1.254c0.178-0.467,0.262-1.189,0.262-2.166v-12.559c0-0.979-0.084-1.704-0.262-2.17
			c-0.172-0.468-0.459-0.884-0.861-1.246h6.615c1.887,0,3.408,0.456,4.57,1.37c1.156,0.912,1.738,2.101,1.738,3.565
			c0,1.061-0.348,1.997-1.043,2.809c-0.699,0.811-1.781,1.524-3.25,2.138l4.967,6.72c0.293,0.402,0.643,0.826,1.059,1.27
			c0.414,0.445,0.879,0.904,1.416,1.389l-1.482,0.135h-0.234c-0.697,0-1.375-0.182-2.035-0.553c-0.662-0.371-1.223-0.879-1.68-1.527
			l-5.689-7.967c1.695-0.384,2.932-0.908,3.717-1.574c0.779-0.667,1.174-1.526,1.174-2.579c0-0.98-0.338-1.777-1.012-2.393
			c-0.668-0.614-1.549-0.924-2.641-0.924c-0.248,0-0.547,0.022-0.891,0.063c-0.35,0.041-0.744,0.104-1.182,0.189V124.991z"/>
		<path fill="#0C234B" d="M45.244,124.988c0,0.979,0.084,1.702,0.248,2.169c0.174,0.465,0.463,0.887,0.875,1.254h-5.24
			c0.406-0.367,0.697-0.789,0.867-1.254c0.17-0.467,0.256-1.189,0.256-2.169v-12.561c0-0.979-0.086-1.701-0.256-2.168
			c-0.17-0.464-0.461-0.88-0.867-1.242h5.24c-0.412,0.362-0.701,0.778-0.875,1.242c-0.164,0.467-0.248,1.189-0.248,2.168V124.988z"
			/>
		<path fill="#0C234B" d="M64.633,124.783l-1.387,3.628H48.338l10.172-16.898c-0.76-0.194-1.475-0.339-2.152-0.433
			c-0.674-0.094-1.301-0.14-1.875-0.14c-0.848,0-1.66,0.104-2.445,0.316c-0.781,0.21-1.582,0.545-2.399,1.002l1.318-3.242h12.396
			l-10.17,16.893c1.131,0.135,2.08,0.229,2.854,0.283c0.767,0.059,1.433,0.088,1.992,0.088c1.32,0,2.529-0.125,3.619-0.377
			C62.74,125.655,63.732,125.281,64.633,124.783z"/>
		<path fill="#0C234B" d="M75.643,128.88c-1.463,0-2.834-0.236-4.122-0.707c-1.295-0.473-2.4-1.148-3.322-2.033
			c-0.975-0.929-1.725-2.027-2.254-3.291c-0.527-1.261-0.789-2.587-0.789-3.977c0-1.091,0.164-2.148,0.502-3.174
			c0.334-1.024,0.824-1.979,1.463-2.867c1-1.369,2.24-2.421,3.709-3.158c1.471-0.736,3.081-1.104,4.813-1.104
			c1.486,0,2.871,0.235,4.162,0.707c1.287,0.47,2.393,1.147,3.322,2.034c0.99,0.933,1.744,2.033,2.27,3.305
			c0.521,1.273,0.781,2.644,0.781,4.116c0,1.353-0.291,2.676-0.879,3.973c-0.588,1.296-1.412,2.443-2.477,3.437
			c-0.953,0.902-2.039,1.582-3.26,2.047C78.342,128.645,77.034,128.88,75.643,128.88z M75.747,110.628
			c-2.131,0-3.885,0.739-5.264,2.22c-1.379,1.481-2.072,3.374-2.072,5.674c0,2.377,0.686,4.347,2.055,5.916
			c1.365,1.571,3.071,2.354,5.116,2.354c2.117,0,3.871-0.742,5.252-2.227c1.377-1.485,2.068-3.385,2.068-5.693
			c0-2.376-0.684-4.344-2.047-5.904C79.485,111.406,77.782,110.628,75.747,110.628z"/>
		<path fill="#0C234B" d="M106.118,109.017c-0.414,0.362-0.703,0.778-0.867,1.242c-0.174,0.467-0.256,1.189-0.256,2.168v16.432
			c-0.67-0.02-1.303-0.234-1.902-0.652c-0.6-0.416-1.35-1.209-2.254-2.381l-9.869-12.63v11.793c0,1.015,0.082,1.753,0.248,2.204
			c0.164,0.453,0.445,0.861,0.852,1.219h-4.334c0.396-0.367,0.686-0.789,0.861-1.254c0.172-0.467,0.264-1.189,0.264-2.169v-12.561
			c0-0.979-0.092-1.701-0.264-2.168c-0.176-0.464-0.465-0.88-0.861-1.242h3.877l11.312,14.574v-11.164
			c0-0.979-0.09-1.701-0.262-2.168c-0.174-0.464-0.461-0.88-0.861-1.242H106.118z"/>
		<path fill="#0C234B" d="M110.584,125.8c-0.084,0.195-0.146,0.398-0.189,0.607c-0.039,0.207-0.057,0.424-0.057,0.646
			c0,0.186,0.062,0.387,0.197,0.607c0.131,0.225,0.346,0.475,0.639,0.75h-4.512c0.371-0.256,0.711-0.613,1.01-1.068
			c0.299-0.451,0.604-1.074,0.914-1.867l5.381-13.846c0.111-0.263,0.191-0.518,0.248-0.768c0.053-0.255,0.082-0.477,0.082-0.673
			c0-0.224-0.053-0.428-0.154-0.614c-0.107-0.188-0.281-0.373-0.52-0.559h4.348l6.088,16.265c0.281,0.737,0.59,1.333,0.912,1.794
			c0.332,0.455,0.746,0.904,1.264,1.336h-5.48l0.066-0.066c0.504-0.537,0.756-0.932,0.756-1.182c0-0.295-0.107-0.73-0.33-1.307
			c-0.025-0.096-0.051-0.164-0.066-0.211l-1.641-4.485h-7.127L110.584,125.8z M113.172,119.211h5.639l-2.709-7.499L113.172,119.211z
			"/>
	</g>
</g>
</svg>
